<mxfile host="65bd71144e">
    <diagram name="Page-1" id="m7h62sNd-sG1F1xwPiXm">
        <mxGraphModel dx="1070" dy="427" grid="1" gridSize="10" guides="1" tooltips="1" connect="1" arrows="1" fold="1" page="1" pageScale="1" pageWidth="850" pageHeight="1100" background="none" math="0" shadow="1">
            <root>
                <mxCell id="0"/>
                <mxCell id="1" parent="0"/>
                <mxCell id="rlILf8Csak6X1hhZwI38-141" style="edgeStyle=orthogonalEdgeStyle;rounded=0;orthogonalLoop=1;jettySize=auto;html=1;exitX=0.5;exitY=1;exitDx=0;exitDy=0;entryX=0.5;entryY=0;entryDx=0;entryDy=0;" parent="1" source="rlILf8Csak6X1hhZwI38-2" target="rlILf8Csak6X1hhZwI38-140" edge="1">
                    <mxGeometry relative="1" as="geometry"/>
                </mxCell>
                <mxCell id="rlILf8Csak6X1hhZwI38-2" value="DEVICE PLUGGED IN" style="rounded=0;whiteSpace=wrap;html=1;fillColor=#008a00;fontColor=#ffffff;strokeColor=#005700;" parent="1" vertex="1">
                    <mxGeometry x="80" y="240" width="160" height="40" as="geometry"/>
                </mxCell>
                <mxCell id="rlILf8Csak6X1hhZwI38-3" value="&lt;b&gt;DEVICE SIDE&lt;/b&gt;" style="text;html=1;align=center;verticalAlign=middle;resizable=0;points=[];autosize=1;strokeColor=#006EAF;fillColor=#1ba1e2;fontSize=24;fontStyle=0;labelBackgroundColor=none;labelBorderColor=none;perimeterSpacing=0;fontColor=#050505;rounded=0;glass=0;shadow=0;rotation=355;" parent="1" vertex="1">
                    <mxGeometry x="70" y="165" width="180" height="40" as="geometry"/>
                </mxCell>
                <mxCell id="rlILf8Csak6X1hhZwI38-143" style="edgeStyle=orthogonalEdgeStyle;rounded=0;orthogonalLoop=1;jettySize=auto;html=1;exitX=0.5;exitY=1;exitDx=0;exitDy=0;entryX=0.5;entryY=0;entryDx=0;entryDy=0;" parent="1" source="rlILf8Csak6X1hhZwI38-140" target="rlILf8Csak6X1hhZwI38-142" edge="1">
                    <mxGeometry relative="1" as="geometry"/>
                </mxCell>
                <mxCell id="rlILf8Csak6X1hhZwI38-140" value="DEVICE CONNECTS TO WIFI" style="rounded=0;whiteSpace=wrap;html=1;" parent="1" vertex="1">
                    <mxGeometry x="70" y="320" width="180" height="40" as="geometry"/>
                </mxCell>
                <mxCell id="rlILf8Csak6X1hhZwI38-288" style="edgeStyle=orthogonalEdgeStyle;rounded=0;orthogonalLoop=1;jettySize=auto;html=1;exitX=0.5;exitY=1;exitDx=0;exitDy=0;entryX=0.5;entryY=0;entryDx=0;entryDy=0;fillColor=#d80073;strokeColor=#A50040;shape=flexArrow;" parent="1" source="rlILf8Csak6X1hhZwI38-142" target="rlILf8Csak6X1hhZwI38-287" edge="1">
                    <mxGeometry relative="1" as="geometry"/>
                </mxCell>
                <mxCell id="rlILf8Csak6X1hhZwI38-142" value="POST REQUEST TO discovery.lixielabs.com&lt;br&gt;&lt;br&gt;( USER'S EXTERNAL IP: 65.44.123.128 )" style="rounded=0;whiteSpace=wrap;html=1;fillColor=#d80073;fontColor=#ffffff;strokeColor=#A50040;" parent="1" vertex="1">
                    <mxGeometry x="30" y="390" width="260" height="60" as="geometry"/>
                </mxCell>
                <mxCell id="rlILf8Csak6X1hhZwI38-152" value="&lt;b&gt;&lt;font style=&quot;font-size: 36px;&quot;&gt;LIXIE LABS DISCOVERY SERVER&lt;/font&gt;&lt;/b&gt;" style="text;html=1;align=center;verticalAlign=middle;resizable=0;points=[];autosize=1;strokeColor=#C73500;fillColor=#fa6800;fontColor=#000000;rounded=0;" parent="1" vertex="1">
                    <mxGeometry x="120" y="75" width="600" height="60" as="geometry"/>
                </mxCell>
                <mxCell id="rlILf8Csak6X1hhZwI38-200" value="&lt;b&gt;APP SIDE&lt;/b&gt;" style="text;html=1;align=center;verticalAlign=middle;resizable=0;points=[];autosize=1;strokeColor=#006EAF;fillColor=#1ba1e2;fontSize=24;fontStyle=0;labelBackgroundColor=none;labelBorderColor=none;perimeterSpacing=0;fontColor=#050505;rounded=0;rotation=5;" parent="1" vertex="1">
                    <mxGeometry x="610" y="165" width="140" height="40" as="geometry"/>
                </mxCell>
                <mxCell id="rlILf8Csak6X1hhZwI38-241" value="" style="endArrow=none;dashed=1;html=1;rounded=0;" parent="1" edge="1">
                    <mxGeometry width="50" height="50" relative="1" as="geometry">
                        <mxPoint x="10" as="sourcePoint"/>
                        <mxPoint x="840" as="targetPoint"/>
                    </mxGeometry>
                </mxCell>
                <mxCell id="rlILf8Csak6X1hhZwI38-298" style="edgeStyle=orthogonalEdgeStyle;rounded=0;orthogonalLoop=1;jettySize=auto;html=1;exitX=1;exitY=0.5;exitDx=0;exitDy=0;entryX=0;entryY=0.5;entryDx=0;entryDy=0;fillColor=#d80073;strokeColor=#A50040;shape=flexArrow;" parent="1" source="rlILf8Csak6X1hhZwI38-287" target="rlILf8Csak6X1hhZwI38-289" edge="1">
                    <mxGeometry relative="1" as="geometry"/>
                </mxCell>
                <mxCell id="rlILf8Csak6X1hhZwI38-311" style="edgeStyle=orthogonalEdgeStyle;rounded=0;orthogonalLoop=1;jettySize=auto;html=1;exitX=0.5;exitY=1;exitDx=0;exitDy=0;entryX=0.5;entryY=0;entryDx=0;entryDy=0;" parent="1" source="rlILf8Csak6X1hhZwI38-287" target="rlILf8Csak6X1hhZwI38-310" edge="1">
                    <mxGeometry relative="1" as="geometry"/>
                </mxCell>
                <mxCell id="rlILf8Csak6X1hhZwI38-287" value="&lt;div&gt;REQUEST BODY:&lt;/div&gt;&lt;div&gt;&lt;br&gt;&lt;/div&gt;&lt;div&gt;product=emotiscope&lt;/div&gt;&lt;div&gt;version=1.0.0&lt;/div&gt;&lt;div&gt;local_ip=192.168.1.44&lt;/div&gt;" style="rounded=0;whiteSpace=wrap;html=1;fillColor=#d80073;fontColor=#ffffff;strokeColor=#A50040;" parent="1" vertex="1">
                    <mxGeometry x="90" y="480" width="140" height="90" as="geometry"/>
                </mxCell>
                <mxCell id="rlILf8Csak6X1hhZwI38-325" style="edgeStyle=orthogonalEdgeStyle;rounded=0;orthogonalLoop=1;jettySize=auto;html=1;exitX=0.75;exitY=0;exitDx=0;exitDy=0;entryX=0.75;entryY=1;entryDx=0;entryDy=0;" parent="1" source="rlILf8Csak6X1hhZwI38-289" target="rlILf8Csak6X1hhZwI38-321" edge="1">
                    <mxGeometry relative="1" as="geometry"/>
                </mxCell>
                <mxCell id="rlILf8Csak6X1hhZwI38-289" value="SERVER STORES CHECK-IN ALONG WITH EXTERNAL IP THAT SENT IT" style="rounded=0;whiteSpace=wrap;html=1;" parent="1" vertex="1">
                    <mxGeometry x="290" y="505" width="260" height="40" as="geometry"/>
                </mxCell>
                <mxCell id="rlILf8Csak6X1hhZwI38-292" value="USER OPENS APP" style="rounded=0;whiteSpace=wrap;html=1;fillColor=#008a00;fontColor=#ffffff;strokeColor=#005700;" parent="1" vertex="1">
                    <mxGeometry x="600" y="240" width="160" height="40" as="geometry"/>
                </mxCell>
                <mxCell id="rlILf8Csak6X1hhZwI38-293" value="&lt;b&gt;SERVER&lt;/b&gt;" style="text;html=1;align=center;verticalAlign=middle;resizable=0;points=[];autosize=1;strokeColor=#006EAF;fillColor=#1ba1e2;fontSize=24;fontStyle=0;labelBackgroundColor=none;labelBorderColor=none;perimeterSpacing=0;fontColor=#050505;rounded=0;glass=0;shadow=0;rotation=0;" parent="1" vertex="1">
                    <mxGeometry x="360" y="160" width="120" height="40" as="geometry"/>
                </mxCell>
                <mxCell id="rlILf8Csak6X1hhZwI38-322" style="edgeStyle=orthogonalEdgeStyle;rounded=0;orthogonalLoop=1;jettySize=auto;html=1;exitX=0.5;exitY=1;exitDx=0;exitDy=0;entryX=0.5;entryY=0;entryDx=0;entryDy=0;" parent="1" source="rlILf8Csak6X1hhZwI38-294" target="rlILf8Csak6X1hhZwI38-321" edge="1">
                    <mxGeometry relative="1" as="geometry"/>
                </mxCell>
                <mxCell id="rlILf8Csak6X1hhZwI38-294" value="SERVER STARTED" style="rounded=0;whiteSpace=wrap;html=1;fillColor=#008a00;fontColor=#ffffff;strokeColor=#005700;" parent="1" vertex="1">
                    <mxGeometry x="340" y="240" width="160" height="40" as="geometry"/>
                </mxCell>
                <mxCell id="rlILf8Csak6X1hhZwI38-300" style="edgeStyle=orthogonalEdgeStyle;rounded=0;orthogonalLoop=1;jettySize=auto;html=1;exitX=0.5;exitY=1;exitDx=0;exitDy=0;entryX=1;entryY=0.5;entryDx=0;entryDy=0;fillColor=#d80073;strokeColor=#A50040;shape=flexArrow;" parent="1" source="rlILf8Csak6X1hhZwI38-295" target="rlILf8Csak6X1hhZwI38-299" edge="1">
                    <mxGeometry relative="1" as="geometry"/>
                </mxCell>
                <mxCell id="rlILf8Csak6X1hhZwI38-295" value="GET REQUEST TO discovery.lixielabs.com&lt;br&gt;&lt;br&gt;( USER'S EXTERNAL IP: 65.44.123.128 )" style="rounded=0;whiteSpace=wrap;html=1;fillColor=#d80073;fontColor=#ffffff;strokeColor=#A50040;" parent="1" vertex="1">
                    <mxGeometry x="550" y="320" width="260" height="60" as="geometry"/>
                </mxCell>
                <mxCell id="rlILf8Csak6X1hhZwI38-296" style="edgeStyle=orthogonalEdgeStyle;rounded=0;orthogonalLoop=1;jettySize=auto;html=1;exitX=0.5;exitY=1;exitDx=0;exitDy=0;entryX=0.503;entryY=-0.092;entryDx=0;entryDy=0;entryPerimeter=0;" parent="1" source="rlILf8Csak6X1hhZwI38-292" target="rlILf8Csak6X1hhZwI38-295" edge="1">
                    <mxGeometry relative="1" as="geometry"/>
                </mxCell>
                <mxCell id="rlILf8Csak6X1hhZwI38-303" style="edgeStyle=orthogonalEdgeStyle;rounded=0;orthogonalLoop=1;jettySize=auto;html=1;exitX=0.5;exitY=1;exitDx=0;exitDy=0;entryX=0.5;entryY=0;entryDx=0;entryDy=0;" parent="1" source="rlILf8Csak6X1hhZwI38-299" target="rlILf8Csak6X1hhZwI38-302" edge="1">
                    <mxGeometry relative="1" as="geometry"/>
                </mxCell>
                <mxCell id="rlILf8Csak6X1hhZwI38-299" value="SERVER COMPARES EXTERNAL IP&lt;br&gt;OF&amp;nbsp;APP MAKING GET REQUEST TO&lt;br&gt;RECENTLY POSTED CHECK-INS" style="rounded=0;whiteSpace=wrap;html=1;" parent="1" vertex="1">
                    <mxGeometry x="310" y="570" width="220" height="60" as="geometry"/>
                </mxCell>
                <mxCell id="rlILf8Csak6X1hhZwI38-306" style="edgeStyle=orthogonalEdgeStyle;rounded=0;orthogonalLoop=1;jettySize=auto;html=1;exitX=1;exitY=0.5;exitDx=0;exitDy=0;entryX=0;entryY=0.5;entryDx=0;entryDy=0;" parent="1" source="rlILf8Csak6X1hhZwI38-302" target="rlILf8Csak6X1hhZwI38-305" edge="1">
                    <mxGeometry relative="1" as="geometry"/>
                </mxCell>
                <mxCell id="rlILf8Csak6X1hhZwI38-307" value="NO" style="edgeLabel;html=1;align=center;verticalAlign=middle;resizable=0;points=[];rounded=0;" parent="rlILf8Csak6X1hhZwI38-306" vertex="1" connectable="0">
                    <mxGeometry x="-0.2" y="-3" relative="1" as="geometry">
                        <mxPoint y="-3" as="offset"/>
                    </mxGeometry>
                </mxCell>
                <mxCell id="rlILf8Csak6X1hhZwI38-328" style="edgeStyle=orthogonalEdgeStyle;rounded=0;orthogonalLoop=1;jettySize=auto;html=1;exitX=0.5;exitY=1;exitDx=0;exitDy=0;entryX=0.5;entryY=0;entryDx=0;entryDy=0;" parent="1" source="rlILf8Csak6X1hhZwI38-302" target="rlILf8Csak6X1hhZwI38-327" edge="1">
                    <mxGeometry relative="1" as="geometry"/>
                </mxCell>
                <mxCell id="rlILf8Csak6X1hhZwI38-329" value="YES" style="edgeLabel;html=1;align=center;verticalAlign=middle;resizable=0;points=[];rounded=0;" parent="rlILf8Csak6X1hhZwI38-328" vertex="1" connectable="0">
                    <mxGeometry x="-0.1333" y="1" relative="1" as="geometry">
                        <mxPoint as="offset"/>
                    </mxGeometry>
                </mxCell>
                <mxCell id="rlILf8Csak6X1hhZwI38-302" value="MATCH FOUND?" style="rhombus;whiteSpace=wrap;html=1;fillColor=#f0a30a;fontColor=#000000;strokeColor=#BD7000;rounded=0;" parent="1" vertex="1">
                    <mxGeometry x="330" y="660" width="180" height="60" as="geometry"/>
                </mxCell>
                <mxCell id="rlILf8Csak6X1hhZwI38-326" style="edgeStyle=orthogonalEdgeStyle;rounded=0;orthogonalLoop=1;jettySize=auto;html=1;exitX=1;exitY=0.5;exitDx=0;exitDy=0;entryX=1;entryY=0.5;entryDx=0;entryDy=0;" parent="1" source="rlILf8Csak6X1hhZwI38-305" target="rlILf8Csak6X1hhZwI38-295" edge="1">
                    <mxGeometry relative="1" as="geometry">
                        <Array as="points">
                            <mxPoint x="830" y="690"/>
                            <mxPoint x="830" y="350"/>
                        </Array>
                    </mxGeometry>
                </mxCell>
                <mxCell id="rlILf8Csak6X1hhZwI38-305" value="ERROR SCREEN:&lt;br&gt;&quot;NO DEVICES FOUND YET&quot;&lt;br&gt;&lt;br&gt;RETRY REQUEST IN 5 SECONDS" style="ellipse;whiteSpace=wrap;html=1;fillColor=#e51400;strokeColor=#B20000;fontColor=#ffffff;rounded=0;" parent="1" vertex="1">
                    <mxGeometry x="585" y="640" width="190" height="100" as="geometry"/>
                </mxCell>
                <mxCell id="rlILf8Csak6X1hhZwI38-320" style="edgeStyle=orthogonalEdgeStyle;rounded=0;orthogonalLoop=1;jettySize=auto;html=1;exitX=0;exitY=0.5;exitDx=0;exitDy=0;entryX=0;entryY=0.5;entryDx=0;entryDy=0;" parent="1" source="rlILf8Csak6X1hhZwI38-308" target="rlILf8Csak6X1hhZwI38-142" edge="1">
                    <mxGeometry relative="1" as="geometry"/>
                </mxCell>
                <mxCell id="rlILf8Csak6X1hhZwI38-308" value="10 MINUTE WAIT&lt;br&gt;UNTIL NEXT CHECK-IN" style="rounded=0;whiteSpace=wrap;html=1;fillColor=#6d8764;fontColor=#ffffff;strokeColor=#3A5431;" parent="1" vertex="1">
                    <mxGeometry x="80" y="800" width="160" height="40" as="geometry"/>
                </mxCell>
                <mxCell id="rlILf8Csak6X1hhZwI38-314" style="edgeStyle=orthogonalEdgeStyle;rounded=0;orthogonalLoop=1;jettySize=auto;html=1;exitX=0.5;exitY=1;exitDx=0;exitDy=0;entryX=0.5;entryY=0;entryDx=0;entryDy=0;" parent="1" source="rlILf8Csak6X1hhZwI38-310" target="rlILf8Csak6X1hhZwI38-313" edge="1">
                    <mxGeometry relative="1" as="geometry"/>
                </mxCell>
                <mxCell id="rlILf8Csak6X1hhZwI38-315" value="NO" style="edgeLabel;html=1;align=center;verticalAlign=middle;resizable=0;points=[];rounded=0;" parent="rlILf8Csak6X1hhZwI38-314" vertex="1" connectable="0">
                    <mxGeometry x="-0.05" y="-1" relative="1" as="geometry">
                        <mxPoint x="1" y="-4" as="offset"/>
                    </mxGeometry>
                </mxCell>
                <mxCell id="rlILf8Csak6X1hhZwI38-318" style="edgeStyle=orthogonalEdgeStyle;rounded=0;orthogonalLoop=1;jettySize=auto;html=1;exitX=1;exitY=0.5;exitDx=0;exitDy=0;entryX=1;entryY=0.5;entryDx=0;entryDy=0;" parent="1" source="rlILf8Csak6X1hhZwI38-310" target="rlILf8Csak6X1hhZwI38-308" edge="1">
                    <mxGeometry relative="1" as="geometry">
                        <Array as="points">
                            <mxPoint x="270" y="630"/>
                            <mxPoint x="270" y="820"/>
                        </Array>
                    </mxGeometry>
                </mxCell>
                <mxCell id="rlILf8Csak6X1hhZwI38-319" value="YES" style="edgeLabel;html=1;align=center;verticalAlign=middle;resizable=0;points=[];rounded=0;" parent="rlILf8Csak6X1hhZwI38-318" vertex="1" connectable="0">
                    <mxGeometry x="-0.1718" y="-2" relative="1" as="geometry">
                        <mxPoint x="2" y="-29" as="offset"/>
                    </mxGeometry>
                </mxCell>
                <mxCell id="rlILf8Csak6X1hhZwI38-310" value="SERVER REACHED?" style="rhombus;whiteSpace=wrap;html=1;fillColor=#f0a30a;fontColor=#000000;strokeColor=#BD7000;rounded=0;" parent="1" vertex="1">
                    <mxGeometry x="70" y="600" width="180" height="60" as="geometry"/>
                </mxCell>
                <mxCell id="rlILf8Csak6X1hhZwI38-341" style="edgeStyle=orthogonalEdgeStyle;rounded=0;orthogonalLoop=1;jettySize=auto;html=1;exitX=0;exitY=0.5;exitDx=0;exitDy=0;" parent="1" source="rlILf8Csak6X1hhZwI38-313" edge="1">
                    <mxGeometry relative="1" as="geometry">
                        <mxPoint x="10" y="745" as="targetPoint"/>
                    </mxGeometry>
                </mxCell>
                <mxCell id="rlILf8Csak6X1hhZwI38-313" value="REATTEMPT CONNECTION&lt;br&gt;WITH EXPONENTIAL BACKOFF" style="ellipse;whiteSpace=wrap;html=1;fillColor=#e51400;strokeColor=#B20000;fontColor=#ffffff;rounded=0;" parent="1" vertex="1">
                    <mxGeometry x="90" y="710" width="140" height="70" as="geometry"/>
                </mxCell>
                <mxCell id="rlILf8Csak6X1hhZwI38-324" style="edgeStyle=orthogonalEdgeStyle;rounded=0;orthogonalLoop=1;jettySize=auto;html=1;exitX=0.25;exitY=1;exitDx=0;exitDy=0;entryX=0.25;entryY=0;entryDx=0;entryDy=0;" parent="1" source="rlILf8Csak6X1hhZwI38-321" target="rlILf8Csak6X1hhZwI38-289" edge="1">
                    <mxGeometry relative="1" as="geometry"/>
                </mxCell>
                <mxCell id="rlILf8Csak6X1hhZwI38-321" value="AWAITING CONNECTIONS" style="rounded=0;whiteSpace=wrap;html=1;fillColor=#6d8764;fontColor=#ffffff;strokeColor=#3A5431;" parent="1" vertex="1">
                    <mxGeometry x="330" y="320" width="180" height="40" as="geometry"/>
                </mxCell>
                <mxCell id="rlILf8Csak6X1hhZwI38-331" style="edgeStyle=orthogonalEdgeStyle;rounded=0;orthogonalLoop=1;jettySize=auto;html=1;exitX=1;exitY=0.5;exitDx=0;exitDy=0;entryX=0;entryY=0.5;entryDx=0;entryDy=0;fillColor=#0050ef;strokeColor=#001DBC;shape=flexArrow;" parent="1" source="rlILf8Csak6X1hhZwI38-327" target="rlILf8Csak6X1hhZwI38-330" edge="1">
                    <mxGeometry relative="1" as="geometry"/>
                </mxCell>
                <mxCell id="rlILf8Csak6X1hhZwI38-344" style="edgeStyle=orthogonalEdgeStyle;rounded=0;orthogonalLoop=1;jettySize=auto;html=1;exitX=0.5;exitY=1;exitDx=0;exitDy=0;entryX=0.5;entryY=0;entryDx=0;entryDy=0;" parent="1" source="rlILf8Csak6X1hhZwI38-327" target="rlILf8Csak6X1hhZwI38-343" edge="1">
                    <mxGeometry relative="1" as="geometry"/>
                </mxCell>
                <mxCell id="rlILf8Csak6X1hhZwI38-327" value="SERVER RETURNS LIST&lt;br&gt;OF LOCAL DEVICES WITH&lt;br&gt;SAME EXTERNAL IP" style="rounded=0;whiteSpace=wrap;html=1;fillColor=#0050ef;fontColor=#ffffff;strokeColor=#001DBC;" parent="1" vertex="1">
                    <mxGeometry x="330" y="770" width="180" height="50" as="geometry"/>
                </mxCell>
                <mxCell id="rlILf8Csak6X1hhZwI38-333" style="edgeStyle=orthogonalEdgeStyle;rounded=0;orthogonalLoop=1;jettySize=auto;html=1;exitX=0.5;exitY=1;exitDx=0;exitDy=0;entryX=0.5;entryY=0;entryDx=0;entryDy=0;fillColor=#d80073;strokeColor=#A50040;shape=flexArrow;" parent="1" source="rlILf8Csak6X1hhZwI38-330" target="rlILf8Csak6X1hhZwI38-332" edge="1">
                    <mxGeometry relative="1" as="geometry"/>
                </mxCell>
                <mxCell id="rlILf8Csak6X1hhZwI38-330" value="APP ATTEMPTS CONNECTION TO DEVICE" style="rounded=0;whiteSpace=wrap;html=1;fillColor=#d80073;fontColor=#ffffff;strokeColor=#A50040;" parent="1" vertex="1">
                    <mxGeometry x="550" y="775" width="260" height="40" as="geometry"/>
                </mxCell>
                <mxCell id="rlILf8Csak6X1hhZwI38-335" style="edgeStyle=orthogonalEdgeStyle;rounded=0;orthogonalLoop=1;jettySize=auto;html=1;exitX=0.5;exitY=1;exitDx=0;exitDy=0;entryX=0.5;entryY=0;entryDx=0;entryDy=0;" parent="1" source="rlILf8Csak6X1hhZwI38-332" target="rlILf8Csak6X1hhZwI38-334" edge="1">
                    <mxGeometry relative="1" as="geometry"/>
                </mxCell>
                <mxCell id="rlILf8Csak6X1hhZwI38-336" value="NO" style="edgeLabel;html=1;align=center;verticalAlign=middle;resizable=0;points=[];rounded=0;" parent="rlILf8Csak6X1hhZwI38-335" vertex="1" connectable="0">
                    <mxGeometry x="-0.3556" y="-2" relative="1" as="geometry">
                        <mxPoint x="2" y="7" as="offset"/>
                    </mxGeometry>
                </mxCell>
                <mxCell id="rlILf8Csak6X1hhZwI38-338" style="edgeStyle=orthogonalEdgeStyle;rounded=0;orthogonalLoop=1;jettySize=auto;html=1;exitX=1;exitY=0.5;exitDx=0;exitDy=0;entryX=0.5;entryY=0;entryDx=0;entryDy=0;" parent="1" source="rlILf8Csak6X1hhZwI38-332" target="rlILf8Csak6X1hhZwI38-337" edge="1">
                    <mxGeometry relative="1" as="geometry">
                        <Array as="points">
                            <mxPoint x="790" y="885"/>
                            <mxPoint x="790" y="1050"/>
                            <mxPoint x="680" y="1050"/>
                        </Array>
                    </mxGeometry>
                </mxCell>
                <mxCell id="rlILf8Csak6X1hhZwI38-339" value="YES" style="edgeLabel;html=1;align=center;verticalAlign=middle;resizable=0;points=[];rounded=0;" parent="rlILf8Csak6X1hhZwI38-338" vertex="1" connectable="0">
                    <mxGeometry x="-0.401" y="-1" relative="1" as="geometry">
                        <mxPoint x="1" y="-22" as="offset"/>
                    </mxGeometry>
                </mxCell>
                <mxCell id="rlILf8Csak6X1hhZwI38-332" value="CONNECTED SUCCESSFULLY?" style="rhombus;whiteSpace=wrap;html=1;fillColor=#f0a30a;fontColor=#000000;strokeColor=#BD7000;rounded=0;" parent="1" vertex="1">
                    <mxGeometry x="590" y="850" width="180" height="70" as="geometry"/>
                </mxCell>
                <mxCell id="rlILf8Csak6X1hhZwI38-342" style="edgeStyle=orthogonalEdgeStyle;rounded=0;orthogonalLoop=1;jettySize=auto;html=1;exitX=0;exitY=0.5;exitDx=0;exitDy=0;entryX=0;entryY=0.5;entryDx=0;entryDy=0;" parent="1" source="rlILf8Csak6X1hhZwI38-334" target="rlILf8Csak6X1hhZwI38-332" edge="1">
                    <mxGeometry relative="1" as="geometry"/>
                </mxCell>
                <mxCell id="rlILf8Csak6X1hhZwI38-334" value="RETRY CONNECTION UP&lt;br&gt;TO X TIMES BEFORE ERROR SCREEN APPEARS" style="ellipse;whiteSpace=wrap;html=1;fillColor=#e51400;strokeColor=#B20000;fontColor=#ffffff;rounded=0;" parent="1" vertex="1">
                    <mxGeometry x="585" y="960" width="190" height="70" as="geometry"/>
                </mxCell>
                <mxCell id="rlILf8Csak6X1hhZwI38-337" value="DISCOVERY COMPLETE" style="rounded=0;whiteSpace=wrap;html=1;fillColor=#008a00;fontColor=#ffffff;strokeColor=#005700;fontStyle=1;" parent="1" vertex="1">
                    <mxGeometry x="600" y="1080" width="160" height="40" as="geometry"/>
                </mxCell>
                <mxCell id="rlILf8Csak6X1hhZwI38-343" value="SERVER ITERATES OVER CHECK IN LIST AND CLEARS EXPIRED ENTRIES" style="rounded=0;whiteSpace=wrap;html=1;" parent="1" vertex="1">
                    <mxGeometry x="330" y="850" width="180" height="50" as="geometry"/>
                </mxCell>
                <mxCell id="rlILf8Csak6X1hhZwI38-345" value="" style="endArrow=none;dashed=1;html=1;rounded=0;" parent="1" edge="1">
                    <mxGeometry width="50" height="50" relative="1" as="geometry">
                        <mxPoint x="10" y="1180" as="sourcePoint"/>
                        <mxPoint x="840" y="1180" as="targetPoint"/>
                    </mxGeometry>
                </mxCell>
                <mxCell id="ryU5Rt2BenNnfQmtWVMC-1" value="" style="verticalLabelPosition=bottom;verticalAlign=top;html=1;shape=mxgraph.basic.tick;fillColor=#cdeb8b;strokeColor=#36393d;rounded=0;" parent="1" vertex="1">
                    <mxGeometry x="490" y="230" width="20" height="20" as="geometry"/>
                </mxCell>
                <mxCell id="ryU5Rt2BenNnfQmtWVMC-2" value="" style="verticalLabelPosition=bottom;verticalAlign=top;html=1;shape=mxgraph.basic.tick;fillColor=#cdeb8b;strokeColor=#36393d;rounded=0;" parent="1" vertex="1">
                    <mxGeometry x="500" y="310" width="20" height="20" as="geometry"/>
                </mxCell>
                <mxCell id="ryU5Rt2BenNnfQmtWVMC-5" value="" style="verticalLabelPosition=bottom;verticalAlign=top;html=1;shape=mxgraph.basic.tick;fillColor=#cdeb8b;strokeColor=#36393d;rounded=0;" parent="1" vertex="1">
                    <mxGeometry x="540" y="495" width="20" height="20" as="geometry"/>
                </mxCell>
                <mxCell id="ryU5Rt2BenNnfQmtWVMC-6" value="" style="verticalLabelPosition=bottom;verticalAlign=top;html=1;shape=mxgraph.basic.tick;fillColor=#cdeb8b;strokeColor=#36393d;rounded=0;" parent="1" vertex="1">
                    <mxGeometry x="520" y="560" width="20" height="20" as="geometry"/>
                </mxCell>
                <mxCell id="ryU5Rt2BenNnfQmtWVMC-7" value="" style="verticalLabelPosition=bottom;verticalAlign=top;html=1;shape=mxgraph.basic.tick;fillColor=#cdeb8b;strokeColor=#36393d;rounded=0;" parent="1" vertex="1">
                    <mxGeometry x="500" y="760" width="20" height="20" as="geometry"/>
                </mxCell>
                <mxCell id="ryU5Rt2BenNnfQmtWVMC-8" value="" style="verticalLabelPosition=bottom;verticalAlign=top;html=1;shape=mxgraph.basic.tick;fillColor=#cdeb8b;strokeColor=#36393d;rounded=0;" parent="1" vertex="1">
                    <mxGeometry x="500" y="840" width="20" height="20" as="geometry"/>
                </mxCell>
                <mxCell id="ryU5Rt2BenNnfQmtWVMC-10" value="" style="verticalLabelPosition=bottom;verticalAlign=top;html=1;shape=mxgraph.basic.tick;fillColor=#cdeb8b;strokeColor=#36393d;rounded=0;" parent="1" vertex="1">
                    <mxGeometry x="230" y="230" width="20" height="20" as="geometry"/>
                </mxCell>
                <mxCell id="ryU5Rt2BenNnfQmtWVMC-11" value="" style="verticalLabelPosition=bottom;verticalAlign=top;html=1;shape=mxgraph.basic.tick;fillColor=#cdeb8b;strokeColor=#36393d;rounded=0;" parent="1" vertex="1">
                    <mxGeometry x="240" y="310" width="20" height="20" as="geometry"/>
                </mxCell>
                <mxCell id="ryU5Rt2BenNnfQmtWVMC-12" value="" style="verticalLabelPosition=bottom;verticalAlign=top;html=1;shape=mxgraph.basic.tick;fillColor=#cdeb8b;strokeColor=#36393d;rounded=0;" parent="1" vertex="1">
                    <mxGeometry x="280" y="380" width="20" height="20" as="geometry"/>
                </mxCell>
                <mxCell id="ryU5Rt2BenNnfQmtWVMC-13" value="" style="verticalLabelPosition=bottom;verticalAlign=top;html=1;shape=mxgraph.basic.tick;fillColor=#cdeb8b;strokeColor=#36393d;rounded=0;" parent="1" vertex="1">
                    <mxGeometry x="220" y="470" width="20" height="20" as="geometry"/>
                </mxCell>
                <mxCell id="ryU5Rt2BenNnfQmtWVMC-14" value="" style="verticalLabelPosition=bottom;verticalAlign=top;html=1;shape=mxgraph.basic.tick;fillColor=#cdeb8b;strokeColor=#36393d;rounded=0;" parent="1" vertex="1">
                    <mxGeometry x="230" y="790" width="20" height="20" as="geometry"/>
                </mxCell>
                <mxCell id="ryU5Rt2BenNnfQmtWVMC-15" value="" style="verticalLabelPosition=bottom;verticalAlign=top;html=1;shape=mxgraph.basic.tick;fillColor=#cdeb8b;strokeColor=#36393d;rounded=0;" parent="1" vertex="1">
                    <mxGeometry x="220" y="720" width="20" height="20" as="geometry"/>
                </mxCell>
                <mxCell id="ryU5Rt2BenNnfQmtWVMC-16" value="" style="verticalLabelPosition=bottom;verticalAlign=top;html=1;shape=mxgraph.basic.tick;fillColor=#cdeb8b;strokeColor=#36393d;rounded=0;" parent="1" vertex="1">
                    <mxGeometry x="240" y="150" width="20" height="20" as="geometry"/>
                </mxCell>
                <mxCell id="ryU5Rt2BenNnfQmtWVMC-17" value="" style="verticalLabelPosition=bottom;verticalAlign=top;html=1;shape=mxgraph.basic.tick;fillColor=#cdeb8b;strokeColor=#36393d;rounded=0;" parent="1" vertex="1">
                    <mxGeometry x="750" y="230" width="20" height="20" as="geometry"/>
                </mxCell>
                <mxCell id="ryU5Rt2BenNnfQmtWVMC-18" value="" style="verticalLabelPosition=bottom;verticalAlign=top;html=1;shape=mxgraph.basic.tick;fillColor=#cdeb8b;strokeColor=#36393d;rounded=0;" parent="1" vertex="1">
                    <mxGeometry x="800" y="310" width="20" height="20" as="geometry"/>
                </mxCell>
                <mxCell id="ryU5Rt2BenNnfQmtWVMC-19" value="" style="verticalLabelPosition=bottom;verticalAlign=top;html=1;shape=mxgraph.basic.tick;fillColor=#cdeb8b;strokeColor=#36393d;rounded=0;" parent="1" vertex="1">
                    <mxGeometry x="800" y="766" width="20" height="20" as="geometry"/>
                </mxCell>
                <mxCell id="ryU5Rt2BenNnfQmtWVMC-21" value="" style="verticalLabelPosition=bottom;verticalAlign=top;html=1;shape=mxgraph.basic.tick;fillColor=#cdeb8b;strokeColor=#36393d;rounded=0;" parent="1" vertex="1">
                    <mxGeometry x="760" y="966" width="20" height="20" as="geometry"/>
                </mxCell>
                <mxCell id="ryU5Rt2BenNnfQmtWVMC-22" value="" style="verticalLabelPosition=bottom;verticalAlign=top;html=1;shape=mxgraph.basic.tick;fillColor=#cdeb8b;strokeColor=#36393d;rounded=0;" parent="1" vertex="1">
                    <mxGeometry x="750" y="1069" width="20" height="20" as="geometry"/>
                </mxCell>
                <mxCell id="ryU5Rt2BenNnfQmtWVMC-23" value="" style="verticalLabelPosition=bottom;verticalAlign=top;html=1;shape=mxgraph.basic.tick;fillColor=#cdeb8b;strokeColor=#36393d;rounded=0;" parent="1" vertex="1">
                    <mxGeometry x="760" y="656" width="20" height="20" as="geometry"/>
                </mxCell>
                <mxCell id="ryU5Rt2BenNnfQmtWVMC-24" value="" style="verticalLabelPosition=bottom;verticalAlign=top;html=1;shape=mxgraph.basic.tick;fillColor=#cdeb8b;strokeColor=#36393d;rounded=0;" parent="1" vertex="1">
                    <mxGeometry x="470" y="150" width="20" height="20" as="geometry"/>
                </mxCell>
                <mxCell id="ryU5Rt2BenNnfQmtWVMC-25" value="" style="verticalLabelPosition=bottom;verticalAlign=top;html=1;shape=mxgraph.basic.tick;fillColor=#cdeb8b;strokeColor=#36393d;rounded=0;" parent="1" vertex="1">
                    <mxGeometry x="740" y="160" width="20" height="20" as="geometry"/>
                </mxCell>
            </root>
        </mxGraphModel>
    </diagram>
</mxfile>